<svg width="40" height="40" viewBox="0 0 40 40" fill="none" xmlns="http://www.w3.org/2000/svg">
<path d="M0.0625 4.5999C0.0625 2.28031 1.9429 0.399902 4.2625 0.399902H32.2625C34.5821 0.399902 36.4625 2.28031 36.4625 4.5999V6.23889C38.0938 6.81546 39.2625 8.3712 39.2625 10.1999V35.3999C39.2625 37.7195 37.3821 39.5999 35.0625 39.5999H7.0625C3.19651 39.5999 0.0625 36.4659 0.0625 32.5999V4.5999ZM2.8625 4.5999C2.8625 5.3731 3.4893 5.9999 4.2625 5.9999H33.6625V4.5999C33.6625 3.8267 33.0357 3.1999 32.2625 3.1999H4.2625C3.4893 3.1999 2.8625 3.8267 2.8625 4.5999ZM32.2625 22.7999H29.4625C28.6893 22.7999 28.0625 23.4267 28.0625 24.1999C28.0625 24.9731 28.6893 25.5999 29.4625 25.5999H32.2625C33.0357 25.5999 33.6625 24.9731 33.6625 24.1999C33.6625 23.4267 33.0357 22.7999 32.2625 22.7999Z" fill="url(#paint0_radial_4124_16838)"/>
<defs>
<radialGradient id="paint0_radial_4124_16838" cx="0" cy="0" r="1" gradientUnits="userSpaceOnUse" gradientTransform="translate(8.70332 -21.1933) rotate(71.5651) scale(60.9301 56.9906)">
<stop stop-color="#20FFFA"/>
<stop offset="0.716998" stop-color="#FF20FF"/>
<stop offset="1" stop-color="#FF741A"/>
</radialGradient>
</defs>
</svg>
